<?xml version="1.0" standalone="no"?>
<!DOCTYPE svg PUBLIC "-//W3C//DTD SVG 20010904//EN"
 "http://www.w3.org/TR/2001/REC-SVG-20010904/DTD/svg10.dtd">
<svg version="1.0" xmlns="http://www.w3.org/2000/svg"
 width="1024.000000pt" height="1024.000000pt" viewBox="0 0 1024.000000 1024.000000"
 preserveAspectRatio="xMidYMid meet">

<g transform="translate(0.000000,1024.000000) scale(0.100000,-0.100000)"
fill="#000000" stroke="none">
<path d="M3462 9869 c14 -35 70 -247 98 -369 18 -74 66 -268 107 -430 86 -336
92 -365 72 -358 -8 3 -99 36 -204 73 -334 119 -602 254 -857 432 -43 29 -78
52 -78 50 0 -7 76 -141 155 -272 249 -413 366 -593 439 -675 58 -65 68 -85 39
-76 -10 3 -72 12 -138 21 -146 20 -403 82 -545 132 -132 47 -407 182 -522 257
-49 31 -88 54 -88 51 0 -26 252 -438 380 -621 52 -75 137 -186 187 -247 51
-61 91 -113 89 -115 -2 -2 -30 1 -63 7 -32 5 -94 15 -138 21 -205 29 -479 120
-675 223 -52 28 -101 54 -107 60 -74 57 195 -296 464 -609 158 -185 306 -314
541 -474 l93 -63 -47 -30 c-88 -54 -337 -169 -454 -209 -140 -47 -342 -86
-496 -95 -63 -3 -111 -10 -107 -14 14 -13 351 -125 539 -178 287 -82 384 -96
637 -96 92 0 167 -3 167 -6 0 -4 -35 -40 -77 -79 -89 -82 -207 -163 -323 -221
-44 -22 -80 -43 -80 -48 0 -9 59 -5 229 14 69 8 126 13 129 11 26 -27 -171
-233 -351 -367 -89 -66 -229 -146 -300 -170 l-48 -16 54 -6 c68 -9 329 8 455
28 175 28 364 85 486 147 32 16 61 27 64 24 11 -12 -19 -84 -60 -147 -24 -35
-73 -94 -109 -131 -37 -38 -64 -68 -61 -68 13 0 117 64 195 120 46 33 87 60
90 60 3 0 7 -105 10 -232 4 -213 21 -388 37 -388 4 0 19 33 35 73 57 149 261
517 286 517 4 0 15 -33 24 -72 65 -270 121 -395 335 -748 66 -109 120 -200
120 -202 0 -16 -282 23 -525 72 -351 72 -549 141 -1016 350 -295 133 -1029
520 -1194 630 -22 15 -46 30 -53 34 -19 11 61 -116 138 -219 36 -49 137 -187
224 -305 351 -481 366 -501 638 -829 196 -238 347 -413 538 -627 64 -71 129
-146 145 -167 l28 -38 -43 -44 c-42 -42 -44 -43 -139 -54 -53 -6 -160 -13
-237 -14 l-141 -3 -25 -28 c-24 -28 -29 -30 -149 -37 -68 -5 -168 -13 -222
-19 -54 -5 -120 -10 -147 -10 l-48 0 -29 -58 c-52 -102 -298 -466 -346 -509
-49 -45 -157 -104 -223 -122 -26 -7 -64 -8 -110 -2 -38 5 -70 7 -72 6 -5 -5
209 -111 328 -163 63 -27 174 -78 245 -112 72 -34 173 -79 225 -100 52 -21
131 -55 175 -75 44 -20 141 -63 215 -95 620 -266 1506 -718 1961 -1001 70 -44
180 -118 244 -165 l116 -87 47 26 c133 71 406 166 2061 717 988 329 1938 648
2111 710 361 129 924 320 1052 358 48 14 85 29 82 34 -3 4 -47 8 -97 8 -107 0
-244 20 -343 51 -112 34 -118 40 -154 125 -18 43 -67 147 -109 233 -42 86 -90
185 -105 221 -16 36 -29 66 -30 67 -7 10 -350 45 -528 53 -206 9 -234 12 -295
36 -88 33 -214 54 -332 54 -85 0 -98 3 -145 29 -53 30 -97 45 -157 55 -27 5
-152 75 -176 100 -2 2 9 17 24 33 151 156 904 1088 1052 1300 20 29 39 52 43
53 12 0 65 -123 81 -190 30 -123 40 -240 34 -395 -6 -162 -26 -263 -71 -355
-14 -30 -24 -55 -22 -58 7 -6 151 97 216 155 108 94 132 127 204 284 40 86 57
105 106 114 65 12 116 -55 151 -195 15 -63 16 -308 1 -408 -5 -34 -5 -59 -1
-55 19 19 166 306 202 392 80 195 97 257 97 355 0 144 -33 250 -126 403 -86
143 -221 291 -396 433 -43 34 -78 66 -78 70 0 8 43 77 158 251 39 60 72 111
72 113 0 1 -64 -19 -143 -46 -200 -67 -255 -73 -506 -59 -702 40 -871 53
-1041 77 -194 28 -373 84 -409 128 -12 14 -9 16 21 16 39 0 262 37 452 75 71
14 280 64 465 111 402 102 535 130 689 145 109 11 367 7 437 -6 227 -42 494
-136 662 -231 42 -24 78 -44 79 -44 20 0 -104 191 -207 321 -99 124 -165 191
-314 316 -128 107 -152 130 -169 166 -8 15 -27 26 -60 34 -31 8 -59 23 -75 41
-15 15 -54 47 -87 69 -70 48 -89 83 -81 144 l5 41 -36 -5 c-280 -42 -412 -83
-656 -204 -172 -85 -202 -105 -466 -302 -308 -229 -501 -347 -629 -385 -55
-16 -175 -20 -220 -7 -30 8 -52 41 -33 48 8 3 88 55 178 115 175 118 382 279
520 405 130 119 394 423 367 423 -4 0 -33 -10 -63 -21 -139 -53 -438 -130
-565 -144 l-60 -7 96 98 c131 136 236 268 366 460 49 72 183 304 183 316 0 5
-26 -8 -57 -29 -120 -77 -240 -146 -343 -198 -106 -53 -231 -107 -236 -102 -1
1 17 34 42 72 103 163 200 440 268 765 24 118 47 235 50 260 3 25 22 124 40
220 19 96 33 176 32 177 -1 1 -21 -27 -44 -62 -64 -96 -158 -222 -220 -292
-66 -75 -201 -198 -209 -190 -3 3 9 48 26 99 43 131 115 441 150 648 17 96 46
263 66 370 19 107 34 199 32 204 -2 5 -25 -18 -52 -50 -309 -368 -611 -647
-935 -861 -41 -27 -131 -86 -199 -132 -129 -86 -141 -88 -141 -30 0 32 -25
117 -57 194 -102 245 -197 433 -259 515 -37 49 -64 67 -48 33 12 -27 14 -199
3 -278 -18 -137 -41 -260 -48 -268 -5 -5 -21 13 -36 40 -86 147 -303 433 -445
587 -36 39 -100 112 -142 161 -42 50 -88 101 -102 115 l-27 25 6 -55 c4 -30
11 -84 16 -120 10 -77 7 -565 -4 -576 -4 -4 -37 22 -75 58 -85 83 -140 131
-222 194 -70 54 -185 134 -194 134 -3 0 15 -32 40 -70 58 -89 164 -308 164
-337 0 -23 -14 -31 -25 -14 -3 5 -54 36 -113 67 -364 195 -767 456 -1026 665
-77 61 -137 105 -134 98z m258 -466 c30 -66 120 -339 120 -368 0 -7 13 -56 29
-107 36 -118 64 -238 56 -246 -17 -17 -41 24 -66 114 -83 302 -179 660 -179
667 0 18 10 2 40 -60z m1465 -238 c-7 -185 -14 -242 -33 -257 -17 -14 -16 -2
8 152 5 36 10 130 11 210 1 123 3 136 10 90 5 -30 7 -118 4 -195z m-1180 170
c48 -27 126 -74 173 -104 142 -88 319 -190 450 -258 193 -100 568 -339 645
-411 l27 -26 0 25 c0 13 -9 62 -19 109 -11 47 -18 86 -17 87 1 1 46 -45 99
-102 121 -129 314 -396 412 -570 105 -184 108 -216 9 -85 -43 58 -139 166
-212 240 l-134 135 43 -80 c23 -44 51 -93 62 -108 10 -16 17 -31 14 -34 -7 -6
-38 20 -218 183 -181 164 -223 197 -375 291 -72 45 -170 110 -217 145 -48 35
-112 79 -144 98 -171 102 -758 539 -697 519 7 -2 51 -26 99 -54z m1442 -155
c144 -180 325 -465 408 -644 l32 -68 6 198 c4 110 13 228 21 264 l14 65 1 -57
c1 -31 5 -59 10 -62 9 -6 7 65 -4 149 -6 39 -5 39 10 17 44 -61 130 -284 170
-440 38 -146 72 -249 78 -232 47 141 15 112 504 452 215 150 337 253 492 414
l128 134 -18 -68 c-10 -37 -25 -84 -34 -105 -27 -65 -160 -281 -299 -485 -72
-106 -160 -236 -195 -288 -35 -52 -66 -92 -68 -90 -7 7 96 208 149 291 52 82
110 187 105 191 -2 2 -27 -21 -57 -52 -30 -30 -75 -69 -100 -87 -43 -32 -78
-63 -289 -256 -51 -47 -98 -88 -104 -90 -6 -2 7 26 27 63 21 37 36 70 33 72
-16 16 -238 -220 -274 -291 -17 -33 -23 -90 -32 -290 -7 -149 -13 -201 -29
-239 l-19 -49 -6 199 c-4 109 -11 217 -17 239 -5 22 -14 88 -19 147 -12 123
-64 441 -84 508 -13 44 -14 41 -21 -105 -7 -168 -25 -307 -38 -303 -5 2 -40
69 -77 148 -37 80 -94 186 -126 235 -129 200 -252 384 -301 450 -50 68 -144
233 -144 251 1 12 66 -60 167 -186z m-2461 -286 c14 -2 31 -7 37 -12 25 -20
347 -156 477 -202 247 -87 374 -128 475 -155 55 -14 165 -44 245 -66 80 -22
188 -51 240 -65 293 -77 617 -223 810 -365 69 -50 180 -160 180 -178 0 -6 -28
8 -62 30 -80 52 -195 106 -339 162 -110 43 -491 163 -654 207 -250 67 -469
145 -745 267 -161 71 -407 195 -474 237 -28 18 -71 45 -96 60 -25 14 -60 38
-77 52 -48 39 -40 17 20 -52 28 -34 99 -118 156 -187 165 -202 446 -459 664
-608 50 -35 86 -64 80 -66 -20 -7 -234 100 -328 164 -181 121 -338 281 -469
478 -141 212 -226 343 -226 349 0 3 13 -6 30 -21 16 -14 42 -28 56 -29z m4494
-510 c-19 -108 -88 -355 -142 -509 -36 -104 -134 -291 -198 -380 -34 -48 -64
-84 -66 -82 -2 2 24 58 57 124 33 67 93 204 133 304 52 131 79 186 94 192 14
7 28 34 46 91 29 90 30 96 50 216 8 47 18 93 21 103 4 10 3 17 -4 17 -7 0 -5
10 5 25 9 14 19 24 21 21 2 -2 -5 -57 -17 -122z m-65 -1 c-57 -116 -327 -453
-363 -453 -24 0 -19 43 11 84 61 85 370 436 384 436 1 0 -13 -30 -32 -67z
m-4986 -196 c142 -162 340 -347 455 -426 25 -18 43 -37 40 -43 -9 -14 -139 -1
-174 17 -36 19 -196 185 -275 285 -94 119 -245 350 -245 375 0 10 89 -84 199
-208z m2429 -408 c95 -20 140 -39 94 -39 -108 0 -539 -143 -644 -214 -59 -39
-232 -208 -286 -278 -19 -26 -37 -46 -40 -44 -6 7 69 149 106 201 20 28 64 79
97 114 l60 64 -45 -24 c-61 -33 -176 -149 -232 -235 -51 -78 -184 -337 -218
-424 -28 -73 -83 -171 -109 -194 -20 -18 -20 -18 -12 10 35 121 250 578 329
700 37 57 153 158 246 215 l31 19 -57 0 c-62 0 -264 -36 -418 -75 -188 -48
-473 -78 -750 -79 l-205 -1 180 -43 c206 -49 411 -80 570 -88 153 -7 202 -14
184 -25 -23 -14 -306 -10 -429 7 -131 17 -362 75 -529 132 l-114 39 109 6
c238 14 509 63 979 177 178 44 488 93 645 104 125 8 363 -4 458 -25z m-2713
-96 c55 -22 130 -51 166 -64 39 -13 85 -39 110 -61 l44 -39 -40 17 c-51 21
-285 104 -293 104 -3 0 9 -16 28 -35 41 -42 148 -117 243 -169 37 -21 65 -42
62 -47 -4 -5 1 -6 9 -3 9 4 18 -1 22 -10 3 -9 9 -14 14 -11 4 2 16 -2 26 -10
18 -13 18 -14 -5 -8 -43 11 -18 -19 70 -85 126 -95 233 -158 336 -198 51 -20
91 -40 88 -44 -3 -4 -32 -22 -66 -40 -71 -36 -86 -35 -196 15 -164 76 -385
245 -551 422 -166 178 -267 306 -256 324 6 10 61 -7 189 -58z m5414 -230 c-93
-119 -110 -135 -144 -129 -20 4 -62 -5 -130 -30 -246 -89 -465 -145 -552 -143
l-38 1 35 10 c236 70 414 140 670 263 107 51 199 93 203 94 5 1 -15 -29 -44
-66z m-2397 22 c148 -15 466 -77 643 -125 312 -84 567 -200 842 -383 l123 -82
-1 -45 c-1 -25 -4 -36 -6 -25 -8 39 -39 65 -168 137 -312 174 -503 250 -865
344 -260 67 -384 91 -623 120 -110 13 -153 22 -169 36 -12 10 -28 19 -37 19
-24 2 48 16 89 18 19 0 97 -6 172 -14z m-2 -220 c167 -18 342 -44 348 -50 3
-3 -7 -87 -22 -187 -14 -101 -26 -196 -26 -212 0 -27 -1 -28 -37 -21 -21 3
-218 9 -438 12 -381 5 -717 -6 -845 -26 -65 -10 -70 -6 -70 62 0 27 -4 46 -8
43 -4 -2 -8 4 -9 14 -2 22 1 23 187 45 68 8 190 15 270 15 134 1 143 2 112 15
-34 15 -53 49 -65 113 -7 36 7 43 30 15 13 -16 13 -16 3 4 -15 31 -24 34 -56
19 -51 -25 -344 -55 -344 -35 0 4 32 10 70 14 67 7 71 9 84 39 8 19 9 33 3 37
-5 4 -7 15 -5 25 4 21 77 39 204 50 l81 7 26 -34 c27 -36 117 -211 117 -229 0
-6 47 -10 128 -10 115 0 255 -11 339 -26 l32 -6 -6 64 c-4 51 -2 67 10 80 15
15 11 17 -52 23 -38 4 -105 4 -148 2 -56 -4 -68 -3 -43 3 24 6 3 7 -64 4 -96
-5 -101 -5 -117 18 l-18 23 6 -22 c12 -49 -7 -19 -27 42 -12 36 -26 67 -31 70
-5 4 -9 10 -9 15 0 12 217 4 390 -15z m-1572 -13 c-1 -4 -34 -36 -73 -71 -113
-103 -236 -224 -232 -227 7 -7 125 44 193 84 83 48 144 74 144 62 0 -5 -19
-19 -42 -31 -24 -12 -57 -32 -75 -45 -30 -23 -86 -54 -208 -117 -54 -28 -294
-129 -335 -142 -14 -4 16 22 65 58 108 77 243 201 256 234 9 24 29 32 29 11 0
-6 3 -8 8 -4 4 4 7 12 7 18 0 6 15 22 33 36 28 21 31 22 25 6 -4 -10 24 9 63
43 79 70 155 116 142 85z m3742 -57 c0 -8 -17 -29 -37 -47 -20 -18 -45 -43
-56 -55 -12 -13 -24 -23 -29 -23 -4 0 -24 -17 -43 -39 -19 -21 -54 -51 -77
-67 -24 -16 -45 -32 -48 -35 -3 -3 -16 -12 -30 -18 -33 -16 18 31 156 144 26
22 73 66 103 98 30 31 56 57 57 57 2 0 4 -7 4 -15z m1499 -329 c27 -24 63 -52
80 -62 17 -10 31 -21 31 -24 0 -3 -53 -18 -117 -33 -65 -15 -125 -32 -133 -37
-36 -24 17 -31 210 -28 l195 3 70 -70 c39 -39 97 -92 130 -120 111 -92 205
-177 205 -186 0 -4 -12 -4 -27 1 -49 16 -255 50 -312 51 -79 1 -124 17 -53 18
28 1 52 5 52 11 0 5 -26 17 -57 27 -46 13 -93 16 -219 15 -186 -1 -301 -17
-470 -66 -65 -18 -132 -37 -149 -40 -16 -4 -39 -10 -50 -13 -49 -14 1 11 96
48 186 72 272 99 384 120 107 21 162 38 122 39 -10 0 -81 2 -158 5 -76 3 -176
1 -220 -5 -110 -13 -127 -1 -47 33 59 24 61 26 29 26 -58 1 -264 -38 -339 -64
-72 -25 -122 -32 -122 -17 0 39 327 233 548 326 34 15 108 39 165 55 56 16
103 29 104 30 1 1 25 -19 52 -43z m-2401 -33 c29 -14 51 -27 48 -30 -5 -5
-155 53 -166 64 -13 13 70 -11 118 -34z m-2997 14 c-6 -8 -8 -17 -5 -20 4 -3
-8 -28 -25 -55 -28 -45 -42 -89 -23 -80 89 46 172 71 172 52 0 -25 -56 -86
-109 -118 -61 -37 -79 -62 -61 -80 7 -7 20 -6 43 2 46 16 47 16 47 -17 0 -28
-39 -73 -87 -99 -32 -19 -4 -26 32 -9 20 9 45 17 57 17 12 0 76 16 142 36 67
20 184 49 261 64 77 16 171 36 209 44 134 29 323 30 294 1 -6 -7 -117 -27
-243 -45 -109 -15 -319 -64 -440 -103 -142 -44 -228 -81 -301 -127 l-63 -40
-10 38 c-5 20 -12 75 -16 122 -4 47 -15 146 -26 220 -10 74 -19 140 -19 146 0
17 110 64 149 64 27 0 31 -3 22 -13z m4148 10 c-2 -1 -13 -9 -24 -17 -19 -14
-19 -14 -6 3 7 9 18 17 24 17 6 0 8 -1 6 -3z m-3531 -88 c-18 -12 -38 -11 -38
0 0 6 10 27 23 48 l22 38 3 -39 c2 -24 -2 -42 -10 -47z m-1183 51 c-9 -15
-128 -90 -225 -142 -89 -48 -199 -93 -312 -128 -38 -11 -68 -25 -68 -30 0 -5
21 -12 48 -15 26 -4 96 -18 155 -31 208 -47 281 -54 469 -44 94 6 173 8 175 7
1 -2 -3 -11 -10 -21 -18 -25 -127 -45 -287 -52 -185 -9 -333 11 -610 83 -217
56 -232 64 -148 77 24 4 75 15 113 26 39 10 101 26 138 34 38 9 102 31 144 51
41 19 76 35 79 35 2 0 34 17 71 38 51 28 191 91 271 121 2 0 0 -4 -3 -9z
m3902 -42 c-3 -8 -6 -5 -6 6 -1 11 2 17 5 13 3 -3 4 -12 1 -19z m-1451 -336
c78 -5 147 -13 155 -18 8 -5 22 -7 31 -6 23 4 45 -41 58 -119 18 -107 24 -355
11 -464 -6 -55 -16 -167 -21 -249 -15 -224 -41 -356 -90 -458 -10 -21 -15 -38
-10 -38 11 0 145 124 201 185 73 81 132 156 173 220 21 33 55 81 74 107 29 39
38 45 54 37 19 -10 21 -7 18 31 -7 85 37 -102 55 -233 7 -56 21 -54 30 6 4 23
16 62 27 87 11 25 24 59 28 75 l8 30 2 -35 c4 -61 7 -80 13 -86 10 -11 26 69
32 166 6 91 21 238 31 307 4 25 24 49 91 108 84 74 215 151 235 139 18 -11 73
-142 117 -276 l42 -126 -30 -61 c-65 -127 -207 -352 -271 -427 -32 -37 -91
-81 -127 -95 -54 -20 -101 -14 -144 20 -21 18 -44 29 -49 26 -18 -11 -47 -78
-64 -150 -9 -38 -32 -120 -52 -182 -34 -109 -36 -112 -99 -171 -105 -98 -352
-276 -510 -367 -27 -16 -66 -41 -85 -56 -104 -83 -467 -283 -584 -323 -83 -28
-257 -16 -298 21 -10 9 -41 59 -69 112 -28 53 -104 179 -169 281 -281 441
-359 614 -445 980 -36 156 -63 247 -87 293 -11 22 -17 41 -15 44 9 8 161 -192
162 -212 0 -24 41 -75 69 -87 46 -18 56 -32 56 -80 0 -32 5 -46 20 -55 16 -11
21 -10 30 7 6 12 16 17 26 13 13 -5 13 -8 -2 -24 -9 -11 -13 -19 -9 -19 4 0 1
-8 -7 -17 -8 -10 -18 -30 -22 -45 -3 -16 -13 -28 -21 -28 -8 0 -15 -6 -15 -12
0 -19 52 -118 62 -118 4 0 8 -7 8 -15 0 -9 10 -15 26 -15 14 0 23 4 19 10 -15
25 12 5 68 -49 62 -59 155 -121 183 -121 20 0 55 61 48 85 -3 11 -17 30 -30
43 -15 13 -20 22 -12 22 8 0 19 -5 25 -11 7 -7 13 -7 17 -1 3 6 -3 13 -14 17
-11 3 -20 11 -20 16 0 5 -13 9 -30 9 -21 0 -30 -5 -30 -16 0 -14 3 -14 15 -4
19 16 20 3 1 -16 -12 -12 -26 2 -100 100 -47 62 -86 116 -86 119 0 4 18 49 39
100 46 107 77 270 67 354 -5 41 -3 53 8 53 9 0 12 -8 8 -27 -2 -16 -2 -25 2
-22 3 3 45 -33 93 -80 47 -47 70 -66 50 -41 -20 25 -60 79 -88 122 -31 47 -61
81 -78 88 -16 6 -44 27 -62 47 -25 26 -28 32 -12 24 30 -16 35 -14 23 8 -5 11
-10 24 -10 29 0 9 47 27 63 24 4 -1 7 5 7 13 0 8 15 22 33 31 17 9 40 25 50
35 10 11 22 17 27 14 6 -3 26 10 45 29 19 20 35 33 35 30 0 -5 148 114 178
142 29 29 -5 28 -40 -2 l-23 -19 19 23 c27 32 2 27 -28 -5 -14 -15 -28 -25
-31 -22 -3 3 27 34 67 69 40 35 82 72 93 84 11 12 38 36 60 54 l40 33 260 -5
c143 -2 323 -9 401 -14z m-1370 -148 c-20 -59 -40 -112 -45 -118 -12 -16 -34
-86 -28 -92 7 -7 62 22 173 89 135 81 191 111 174 94 -20 -20 -365 -249 -410
-272 -19 -9 -45 -26 -57 -37 l-22 -20 6 23 c3 13 38 92 78 174 40 83 82 171
94 197 12 26 32 59 44 75 35 44 33 7 -7 -113z m2500 106 c15 -6 25 -13 22 -15
-3 -3 -20 1 -39 9 -38 17 -25 21 17 6z m2689 -50 c40 -5 18 -6 -65 -3 -69 3
-127 7 -129 9 -7 7 131 2 194 -6z m-2406 -76 c2 -2 -11 -4 -29 -4 -39 0 -111
34 -128 60 -9 16 3 13 70 -16 46 -19 84 -37 87 -40z m-3087 34 c-7 -7 -16 -13
-20 -14 -18 -2 -42 -17 -42 -27 0 -5 9 -2 20 8 41 37 18 -3 -26 -45 -49 -47
-117 -145 -112 -160 2 -5 28 6 58 24 139 82 155 90 141 72 -19 -23 -165 -132
-237 -176 -31 -19 -82 -54 -112 -77 -31 -24 -57 -41 -59 -39 -3 3 59 106 218
363 30 49 36 53 93 66 83 20 93 20 78 5z m-482 -14 c0 -18 -56 -114 -83 -142
-44 -46 -79 -66 -179 -102 -115 -42 -141 -37 -68 13 74 50 182 130 255 189 56
45 75 56 75 42z m2938 -314 c0 -91 -3 -143 -8 -125 -4 17 -8 109 -7 205 0 120
2 159 7 125 5 -27 8 -120 8 -205z m-3043 64 c-20 -49 -66 -133 -101 -186 -35
-54 -59 -98 -53 -98 6 0 40 22 77 50 36 27 68 47 71 44 10 -10 -152 -156 -214
-194 -68 -42 -122 -86 -114 -94 12 -12 266 65 388 118 46 20 86 34 89 32 36
-36 -256 -166 -460 -205 -127 -24 -262 -35 -253 -21 4 6 32 29 63 52 149 110
274 239 378 390 56 80 157 208 162 204 2 -2 -13 -44 -33 -92z m633 -35 c-17
-12 -41 -11 -73 1 -21 8 -24 12 -14 23 7 7 29 14 48 16 19 1 38 4 41 7 3 3 7
-4 8 -16 2 -13 -2 -27 -10 -31z m1982 -334 c-12 -177 -23 -246 -48 -280 -13
-19 -14 -18 -7 10 14 59 35 256 52 500 l8 110 3 -85 c2 -47 -1 -161 -8 -255z
m-2087 283 c14 -18 27 -42 30 -53 4 -15 5 -13 6 8 2 40 21 33 21 -7 0 -26 -8
-42 -32 -65 -30 -28 -58 -40 -58 -26 0 3 -7 40 -15 81 -9 41 -13 79 -10 84 12
19 34 10 58 -22z m377 28 c0 -3 -4 -8 -10 -11 -5 -3 -10 -1 -10 4 0 6 5 11 10
11 6 0 10 -2 10 -4z m-45 -35 c-8 -13 -35 -15 -35 -2 0 5 8 11 18 13 21 5 26
2 17 -11z m105 -26 c7 -8 9 -15 6 -15 -4 0 -14 7 -22 15 -9 8 -11 15 -6 15 5
0 15 -7 22 -15z m-109 -315 c48 0 85 24 116 75 11 18 12 16 12 -16 1 -32 -4
-40 -41 -64 -116 -77 -237 -18 -275 133 -5 22 8 12 68 -51 72 -74 76 -77 120
-77z m2900 113 c133 -90 507 -249 759 -323 80 -23 206 -64 280 -92 74 -28 167
-61 205 -75 39 -14 95 -37 125 -52 l55 -26 -75 -5 c-160 -12 -300 7 -713 96
-140 30 -147 29 -147 -28 0 -41 -46 -264 -97 -471 l-46 -187 -51 -15 c-70 -21
-266 -61 -361 -75 -112 -15 -297 -37 -382 -45 l-73 -7 0 117 0 118 76 -73 c42
-39 77 -70 80 -68 2 2 -6 28 -17 57 -21 55 -83 311 -77 317 5 4 122 -18 325
-60 l153 -32 -69 70 c-80 83 -149 187 -180 269 -12 32 -28 72 -36 88 -9 16
-12 29 -8 29 5 0 40 5 78 11 39 5 93 12 120 15 118 11 298 34 302 37 2 2 -35
18 -81 34 -118 43 -185 90 -235 166 -54 83 -66 119 -51 149 10 19 79 98 86 98
1 0 26 -16 55 -37z m-3427 -126 c-19 -135 -25 -368 -9 -374 6 -1 40 50 78 114
75 132 94 159 103 150 3 -3 -37 -84 -89 -179 -52 -95 -106 -195 -119 -221 -21
-44 -23 -47 -29 -25 -10 33 0 402 13 468 15 81 62 228 66 207 2 -11 -4 -74
-14 -140z m465 117 c9 -48 56 -61 67 -18 5 20 12 24 33 22 34 -4 40 -39 12
-67 -23 -23 -77 -28 -102 -8 -27 21 -51 66 -45 83 8 20 30 13 35 -12z m4726
-164 c44 -5 146 -7 228 -6 81 1 147 -2 147 -6 0 -17 -77 -93 -125 -123 -59
-38 -215 -108 -223 -100 -3 3 -1 5 5 5 6 0 27 13 47 29 l37 30 -39 20 c-44 23
-209 54 -382 73 -104 12 -115 15 -115 33 0 16 8 21 43 23 52 4 56 22 5 23 -21
1 -49 5 -63 9 -30 10 320 1 435 -10z m-4568 -77 c-10 -22 -13 -24 -15 -9 -2
10 2 22 10 27 19 12 19 12 5 -18z m5061 -265 c121 -106 227 -232 284 -335 41
-74 51 -114 19 -76 -84 101 -122 138 -233 234 -70 59 -156 128 -192 153 l-64
44 30 41 c17 23 34 41 39 39 4 -2 57 -46 117 -100z m-434 -90 c-38 -61 -341
-465 -385 -513 -20 -22 -103 -125 -184 -230 -234 -302 -514 -635 -555 -660
-14 -9 -13 1 3 17 63 66 231 282 329 423 63 91 195 310 240 399 17 33 42 77
56 98 30 47 22 59 -18 29 -17 -12 -29 -16 -28 -9 2 7 -21 20 -54 31 -55 18
-77 37 -42 37 9 0 22 7 28 15 6 8 50 24 97 36 89 21 149 50 149 70 0 6 -6 9
-14 6 -33 -13 -352 -28 -509 -25 l-167 3 0 -24 c0 -47 -125 -392 -218 -601
-72 -164 -233 -482 -312 -620 -197 -342 -514 -760 -576 -760 -8 0 -14 -4 -14
-8 0 -9 390 -163 557 -220 57 -19 100 -39 97 -43 -3 -5 -35 -24 -72 -42 -237
-116 -615 -353 -992 -623 -376 -269 -590 -449 -1013 -856 -248 -239 -318 -299
-269 -230 123 171 254 318 587 656 112 114 315 292 460 404 289 223 367 280
505 374 85 57 219 145 297 194 79 49 143 92 143 95 0 4 -16 10 -35 13 -37 7
-465 143 -472 150 -4 4 56 82 246 317 197 245 325 447 511 804 136 262 322
788 399 1129 16 70 31 129 34 132 5 5 80 -5 347 -46 193 -30 357 -35 470 -15
107 18 248 64 330 106 30 15 58 28 63 29 4 0 -5 -19 -19 -42z m-2135 -53 c0
-5 -6 -1 -14 9 -8 11 -15 24 -15 30 0 5 7 1 15 -10 8 -10 14 -23 14 -29z
m-4508 -137 c140 -72 317 -159 394 -194 77 -34 191 -87 254 -118 63 -31 120
-56 127 -56 8 0 14 -5 14 -11 0 -9 -24 -10 -82 -6 -90 7 -327 76 -470 138 -43
18 -81 30 -84 26 -11 -11 267 -370 498 -643 220 -260 349 -415 423 -509 44
-55 123 -152 175 -215 95 -114 331 -425 385 -508 16 -25 24 -46 19 -51 -5 -5
-35 -18 -66 -29 -31 -12 -88 -35 -125 -52 -74 -34 -324 -120 -348 -120 -8 0
-15 -3 -15 -6 0 -6 47 -59 156 -174 175 -186 459 -526 588 -703 33 -45 124
-168 203 -274 78 -105 171 -236 206 -290 76 -118 159 -264 153 -270 -2 -3 -34
31 -70 74 -36 43 -177 213 -315 378 -236 284 -495 588 -660 776 -41 46 -178
191 -305 322 -127 131 -232 241 -233 245 -2 4 148 56 332 117 184 60 335 114
335 120 0 7 -10 20 -21 31 -30 26 -339 388 -479 559 -63 77 -162 194 -220 259
-131 149 -289 337 -446 531 -173 215 -595 785 -580 785 2 0 118 -59 257 -132z
m4209 -279 c5 -140 14 -299 20 -354 5 -55 10 -116 10 -136 l0 -35 -102 -29
c-57 -16 -110 -29 -118 -30 -8 -1 -22 -5 -30 -8 -68 -26 -349 -88 -380 -85 -8
1 -35 -1 -60 -5 -25 -4 -106 -14 -180 -22 -74 -9 -150 -18 -168 -21 -23 -3
-32 -2 -27 5 3 6 15 11 26 11 27 0 105 46 124 73 8 11 28 22 45 24 29 3 75 33
51 33 -6 0 -11 5 -11 10 0 6 6 10 14 10 8 0 17 11 20 25 4 14 11 23 16 20 6
-3 10 1 10 10 0 8 7 18 15 21 8 4 13 9 12 13 -2 3 11 21 29 40 29 30 33 31 29
13 -4 -20 -2 -21 19 -7 12 8 26 12 29 8 4 -3 7 -1 7 5 0 7 8 12 18 12 21 0 57
36 66 65 3 11 3 -11 0 -50 -3 -38 -12 -85 -20 -104 -8 -18 -14 -36 -14 -40 1
-10 51 88 97 194 25 55 50 107 57 115 7 8 23 40 36 70 12 30 47 101 77 158 54
100 56 102 74 86 17 -15 19 -26 13 -78 -4 -34 -11 -66 -15 -72 -5 -6 -23 -105
-40 -220 -32 -217 -46 -355 -30 -299 5 17 24 84 44 150 19 66 42 172 52 235
18 122 40 209 59 225 6 6 11 16 12 23 3 36 5 42 13 42 4 0 8 -12 7 -27 -1 -15
5 -28 14 -31 8 -3 12 -1 8 3 -4 5 -4 13 1 19 11 14 41 147 41 182 0 20 3 25
10 18 7 -7 15 -114 20 -265z m238 -561 c-2 -12 -8 -23 -14 -25 -17 -6 -27 29
-12 39 22 13 30 9 26 -14z m-48 -7 c0 -5 -10 -11 -23 -15 -13 -3 -40 -17 -61
-31 -20 -14 -43 -25 -51 -25 -8 0 -34 -6 -57 -14 -110 -36 -108 -21 2 18 69
23 139 50 155 59 36 19 35 19 35 8z m-335 -121 c-27 -12 -43 -12 -25 0 8 5 22
9 30 9 10 0 8 -3 -5 -9z m249 1 c5 -8 -66 -31 -95 -31 -22 0 4 18 41 28 46 13
48 13 54 3z m-207 -57 c-3 -3 -12 -4 -19 -1 -8 3 -5 6 6 6 11 1 17 -2 13 -5z
m-1594 -44 c42 -25 160 -55 250 -65 67 -7 67 -7 67 -37 l0 -31 -116 7 c-65 4
-120 8 -123 9 -13 4 -14 -12 -7 -123 8 -134 -9 -396 -26 -418 -10 -12 -4 -22
37 -60 28 -25 78 -58 113 -73 59 -27 73 -41 53 -54 -22 -13 -168 46 -233 95
-61 45 -68 53 -68 84 0 19 6 41 14 49 20 20 36 177 36 349 -1 134 -2 145 -25
183 -24 39 -34 105 -16 105 6 0 25 -9 44 -20z m1392 1 c-33 -10 -64 -15 -70
-12 -16 9 48 30 90 30 39 -1 39 -1 -20 -18z m292 -73 c-3 -8 -6 -5 -6 6 -1 11
2 17 5 13 3 -3 4 -12 1 -19z m-1167 -23 l0 -35 -56 0 c-54 0 -55 0 -52 27 2
22 10 29 33 34 67 15 75 12 75 -26z m1177 -57 c-2 -13 -4 -3 -4 22 0 25 2 35
4 23 2 -13 2 -33 0 -45z m-1167 -42 c0 -16 -30 -26 -77 -26 -26 0 -33 4 -33
20 0 18 7 20 55 20 40 0 55 -4 55 -14z m1196 -112 c17 -108 17 -162 -1 -79
-15 73 -28 181 -20 173 4 -3 13 -46 21 -94z m-1188 29 c3 -22 0 -23 -52 -23
-48 0 -56 3 -56 18 0 28 10 33 60 30 38 -3 45 -6 48 -25z m12 -104 c0 -30 -2
-31 -31 -25 -17 3 -42 6 -54 6 -16 0 -24 7 -27 25 -5 24 -4 25 53 25 l59 0 0
-31z m-650 -36 c0 -5 -26 -26 -56 -48 -67 -47 -118 -104 -178 -194 -78 -120
-124 -215 -150 -311 -62 -232 -45 -296 29 -109 l32 81 -5 -250 c-5 -249 1
-342 19 -311 4 9 20 83 34 165 14 82 38 199 52 259 30 131 127 450 154 508
l19 42 -5 -95 c-3 -52 -12 -178 -21 -280 -18 -216 -20 -977 -3 -1280 5 -102
12 -232 15 -290 l5 -105 -62 145 c-173 408 -434 1120 -459 1253 -9 46 -8 51
40 134 52 91 110 221 110 248 0 30 89 193 138 251 26 33 65 81 86 109 39 51
46 55 199 84 4 0 7 -2 7 -6z m648 -65 c3 -27 2 -28 -46 -28 -45 0 -50 2 -54
25 -7 33 -1 36 52 33 41 -3 45 -6 48 -30z m1537 -35 c-10 -16 -39 -55 -65 -88
-25 -33 -67 -92 -92 -131 -71 -108 -155 -188 -331 -312 -67 -48 -137 -111
-137 -125 0 -13 -71 -77 -105 -94 -62 -32 -202 -136 -270 -200 -38 -36 -54
-55 -35 -41 19 14 85 61 145 105 61 44 137 96 170 117 33 21 80 57 105 81 67
63 161 137 168 131 9 -9 -60 -103 -150 -205 -46 -52 -119 -138 -163 -192 -44
-54 -142 -169 -217 -256 -75 -87 -167 -197 -205 -244 -37 -47 -134 -169 -214
-270 -161 -201 -391 -436 -602 -612 -105 -88 -112 -76 -38 71 27 53 70 149 97
212 63 153 313 645 453 895 61 110 115 207 120 215 4 8 28 31 53 50 167 129
253 191 405 293 95 64 205 140 245 169 40 30 145 103 233 163 88 59 210 144
271 187 98 68 161 108 173 108 2 0 -5 -12 -14 -27z m856 -45 c38 -24 69 -46
69 -49 0 -3 -28 -26 -62 -51 -82 -61 -112 -93 -266 -283 -71 -88 -135 -161
-143 -163 -8 -1 -23 4 -34 12 -19 13 -18 16 24 97 53 103 87 158 170 274 62
87 159 205 169 205 2 0 35 -19 73 -42z m-2391 12 c0 -5 -13 -10 -29 -10 -17 0
-33 5 -36 10 -4 6 8 10 29 10 20 0 36 -4 36 -10z m1141 -35 c-18 -8 -36 -15
-40 -15 -13 1 45 29 59 29 8 0 0 -6 -19 -14z m-56 -25 c-3 -5 -12 -10 -18 -10
-7 0 -6 4 3 10 19 12 23 12 15 0z m-1071 -19 c4 -5 3 -17 0 -26 -5 -12 -18
-15 -58 -13 -44 3 -51 6 -54 26 -3 20 0 22 52 22 30 0 57 -4 60 -9z m2640 -20
c20 -11 67 -23 104 -26 143 -14 275 -35 288 -46 15 -12 5 -26 -72 -111 l-34
-37 -34 22 c-18 12 -32 25 -30 29 6 9 -10 13 -166 43 -154 29 -194 30 -267 11
-51 -14 -52 -13 -42 5 14 27 105 85 157 100 23 7 42 16 42 21 0 12 12 10 54
-11z m-4620 -133 c-19 -38 -49 -107 -65 -154 -27 -74 -34 -85 -53 -82 -11 2
-20 8 -19 14 10 55 45 222 48 235 7 20 71 57 101 57 23 0 23 -1 -12 -70z
m1976 38 c0 -32 -6 -35 -63 -29 -35 4 -47 10 -47 23 0 26 9 30 62 30 44 0 48
-2 48 -24z m3630 -57 c47 -6 92 -13 100 -16 9 -2 -29 -25 -86 -52 -132 -63
-203 -112 -315 -219 -197 -187 -478 -570 -609 -827 l-55 -110 -65 -16 c-36 -9
-73 -20 -82 -24 -10 -4 -18 -5 -18 -3 0 20 80 193 109 237 21 31 69 117 108
191 115 221 284 480 412 628 40 45 85 106 102 134 64 109 47 100 189 93 69 -3
163 -10 210 -16z m-5800 2 c0 -5 -7 -17 -16 -26 -9 -9 -20 -31 -24 -48 -8 -31
-8 -31 -9 -4 -1 32 -3 32 -134 17 -66 -8 -108 -20 -175 -50 -122 -56 -117 -53
-114 -88 2 -17 -6 -62 -18 -101 -11 -39 -25 -111 -31 -159 -17 -157 -40 -275
-62 -316 l-22 -41 -3 50 c-3 45 19 209 63 466 19 113 48 205 78 249 l24 35
129 11 c168 14 314 16 314 5z m5288 -13 c7 -7 12 -25 12 -41 0 -25 -3 -28 -21
-24 -16 4 -33 -7 -71 -48 -27 -29 -64 -76 -81 -104 -18 -28 -62 -95 -98 -149
-36 -53 -78 -118 -93 -144 -28 -48 -62 -86 -50 -55 34 90 192 372 245 437 16
19 47 59 69 88 40 52 65 63 88 40z m-3118 -49 c0 -31 -1 -31 -37 -25 -21 3
-48 6 -60 6 -18 0 -23 6 -23 25 0 24 3 25 60 25 l60 0 0 -31z m-2750 -14 c0
-8 -6 -32 -14 -52 -8 -21 -22 -94 -31 -163 -9 -69 -27 -199 -42 -290 -20 -129
-25 -199 -25 -322 l1 -156 -27 14 c-15 8 -35 14 -44 14 -48 0 -48 2 -48 187 0
95 7 236 15 311 8 75 19 193 25 262 6 69 13 142 16 162 l6 37 56 4 c31 2 69 4
85 5 18 1 27 -3 27 -13z m6761 -167 c94 -140 144 -241 159 -317 13 -69 2 -84
-40 -53 -16 12 -36 22 -43 22 -8 0 -21 8 -28 17 -12 15 -12 16 2 11 9 -4 -17
27 -58 68 -65 65 -77 73 -101 68 -38 -10 -320 -151 -360 -181 -31 -24 -94 -54
-139 -68 -20 -6 -20 -3 7 24 33 32 39 58 15 63 -11 2 16 45 94 151 61 81 108
153 105 161 -10 27 225 155 288 156 11 0 47 -44 99 -122z m-1418 88 c58 -25
97 -89 97 -160 0 -37 -30 -105 -55 -126 -16 -13 -15 -9 4 27 18 37 20 47 10
90 -6 27 -20 60 -31 73 -20 24 -23 25 -141 22 l-121 -2 25 26 c52 57 145 79
212 50z m-5685 -38 c19 -19 14 -115 -14 -233 -39 -169 -62 -311 -66 -408 -2
-69 -6 -87 -17 -85 -21 4 -28 39 -36 177 -4 67 -10 123 -14 126 -4 2 -16 -21
-26 -51 -21 -62 -35 -78 -35 -40 0 32 -1 32 -36 2 -16 -13 -51 -43 -77 -65
-30 -25 -58 -41 -74 -41 -30 0 -133 31 -133 39 0 3 37 40 82 81 65 59 103 108
187 235 104 158 203 275 232 275 8 0 20 -5 27 -12z m3052 -23 c0 -2 -5 -16
-12 -30 -8 -19 -19 -25 -42 -25 -55 0 -76 10 -76 36 0 23 3 24 65 24 36 0 65
-2 65 -5z m-2346 -56 c32 -25 21 -39 -32 -39 -20 0 -35 -6 -38 -15 -4 -10 -14
-13 -30 -9 -18 5 -32 -2 -59 -29 -29 -29 -35 -42 -35 -76 0 -39 -1 -41 -20
-31 -12 6 -26 22 -32 36 -16 34 14 95 70 145 40 35 51 39 97 39 38 0 60 -6 79
-21z m2296 -78 c0 -42 -16 -50 -79 -40 -29 4 -55 10 -58 12 -2 2 1 16 6 31 10
24 15 26 71 26 59 0 60 0 60 -29z m1240 -80 c0 -19 -99 -154 -214 -291 -67
-80 -140 -168 -162 -196 -21 -28 -102 -129 -179 -225 -77 -96 -140 -178 -141
-184 0 -5 -25 -35 -55 -65 -30 -30 -114 -117 -187 -193 -74 -75 -136 -137
-139 -137 -18 0 102 171 262 375 52 66 123 157 158 201 70 91 269 324 363 424
33 36 87 97 119 135 117 139 175 191 175 156z m-1293 -17 c21 -6 21 -7 6 -40
-15 -30 -21 -34 -57 -34 -23 0 -51 3 -62 6 -20 5 -21 9 -11 40 10 32 13 34 56
34 25 0 56 -3 68 -6z m-2249 -44 c-7 -11 -17 -20 -22 -20 -5 0 -1 9 9 20 10
11 20 20 22 20 2 0 -2 -9 -9 -20z m2208 -122 c-9 -44 -24 -58 -60 -57 -62 2
-81 13 -79 44 3 38 17 45 87 45 l59 0 -7 -32z m-1985 -149 c-14 -92 -26 -129
-41 -129 -14 0 -12 49 6 138 18 88 22 98 37 83 7 -7 7 -34 -2 -92z m1935 29
c8 -8 -28 -98 -39 -99 -21 -1 -112 3 -114 5 -2 2 4 26 13 56 l16 53 60 -6 c33
-3 61 -7 64 -9z m-2256 -97 c0 -10 -6 -23 -13 -29 -16 -13 -173 -42 -228 -42
-38 0 -39 1 -39 34 0 33 1 34 58 44 31 5 94 10 140 11 74 1 82 -1 82 -18z
m2179 -70 c14 -9 7 -66 -10 -76 -5 -3 -36 -3 -69 1 -54 6 -60 9 -60 30 0 36
26 54 78 54 26 0 53 -4 61 -9z m-1908 -68 c0 -33 -4 -77 -10 -99 -5 -21 -12
-83 -15 -138 -3 -54 -7 -101 -10 -103 -3 -3 -10 -2 -16 2 -11 7 -11 17 6 255
6 89 13 120 25 120 5 0 9 8 9 17 0 9 2 14 6 11 3 -3 5 -33 5 -65z m4133 10
c-4 -16 -16 -37 -27 -47 -19 -19 -19 -18 -12 15 4 19 12 40 17 47 18 21 29 13
22 -15z m-3889 -183 c29 -137 57 -214 110 -303 19 -32 35 -61 35 -64 0 -12
-62 12 -184 70 l-128 61 6 41 c3 22 9 79 13 127 3 48 9 85 14 82 4 -2 17 -30
29 -62 11 -31 23 -64 26 -72 10 -25 23 22 29 107 7 93 15 147 20 141 2 -2 16
-60 30 -128z m1618 103 c15 -4 17 -11 12 -31 -10 -41 -19 -45 -79 -32 -60 12
-61 14 -46 55 9 25 13 26 53 20 23 -3 50 -9 60 -12z m-31 -131 c5 -5 6 -16 2
-25 -5 -13 -20 -17 -63 -19 l-56 -2 53 -3 c46 -4 52 -7 52 -27 0 -41 -20 -56
-68 -49 -24 3 -46 12 -49 20 -3 8 0 40 7 70 l12 56 51 -6 c28 -4 54 -10 59
-15z m1018 -5 c0 -2 -10 -12 -22 -23 l-23 -19 19 23 c18 21 26 27 26 19z
m-1086 -183 c16 -6 22 -50 8 -70 -4 -8 -26 -10 -59 -7 -57 6 -66 20 -43 64 11
19 60 26 94 13z"/>
<path d="M4560 6832 c0 -8 820 -6 828 3 3 3 -182 5 -411 5 -229 0 -417 -3
-417 -8z"/>
<path d="M5170 6410 c0 -5 -10 -10 -23 -10 -36 0 -139 -54 -277 -144 -311
-205 -481 -299 -502 -278 -7 7 -7 20 0 41 15 43 1 39 -23 -6 -11 -20 -32 -49
-47 -64 l-26 -28 -29 25 -28 24 -3 -21 c-2 -13 9 -41 27 -66 17 -24 31 -46 31
-49 0 -13 -49 22 -82 59 l-37 42 9 -34 c12 -44 54 -87 97 -102 19 -6 32 -13
29 -16 -2 -3 -21 0 -40 7 -20 6 -46 10 -58 8 -17 -3 -6 -9 37 -23 73 -22 95
-35 160 -94 l50 -46 -40 45 c-22 24 -51 55 -65 67 -14 13 -21 23 -17 23 18 0
67 -35 72 -51 11 -35 32 -29 39 11 3 21 11 42 18 46 8 5 9 2 4 -12 -25 -63
-14 -117 23 -113 9 1 23 0 31 -3 24 -9 252 -40 257 -35 2 3 -20 12 -49 21
-177 57 -180 70 -15 63 121 -6 121 -6 62 8 l-60 14 103 -2 c56 -2 102 0 102 4
0 4 -44 10 -97 13 -54 4 -112 10 -130 13 l-32 5 35 52 c20 28 37 52 39 54 1 2
19 -8 40 -22 93 -63 215 -60 271 7 15 18 36 51 46 74 10 23 23 45 28 48 16 10
11 28 -5 21 -20 -7 -38 27 -23 42 16 16 33 15 48 -3 16 -20 33 -19 80 4 31 15
40 16 40 6 0 -29 -49 -146 -75 -180 -36 -48 -118 -100 -188 -120 -32 -9 -57
-19 -55 -21 10 -9 173 17 212 34 98 44 276 194 312 264 22 43 12 44 -32 4 -36
-33 -54 -43 -54 -31 0 27 96 182 121 196 10 5 19 16 19 25 0 13 -3 13 -22 0
-33 -21 -278 -57 -278 -41 0 11 62 60 118 93 75 44 26 30 -63 -18 -65 -35
-170 -68 -181 -58 -2 3 24 20 58 38 48 25 189 110 227 137 2 2 1 6 -2 9 -3 4
-46 -7 -94 -24 -48 -17 -108 -34 -132 -38 l-44 -6 51 52 c51 52 62 70 42 70
-5 0 -10 -4 -10 -10z m-146 -426 c34 -13 9 -105 -39 -142 -21 -17 -41 -22 -83
-22 -50 0 -58 3 -88 36 -41 43 -42 52 -8 64 33 13 31 14 38 -15 7 -26 40 -50
57 -40 6 4 7 20 4 37 -9 37 13 35 32 -2 l12 -24 10 27 c6 15 8 34 4 42 -3 9 2
22 13 30 22 16 26 17 48 9z m-447 -200 c-3 -3 -12 -4 -19 -1 -8 3 -5 6 6 6 11
1 17 -2 13 -5z m-17 -34 c0 -18 -40 -90 -49 -90 -5 0 0 19 12 43 12 23 20 45
19 50 -1 4 3 7 8 7 6 0 10 -5 10 -10z"/>
<path d="M5423 6403 c9 -2 23 -2 30 0 6 3 -1 5 -18 5 -16 0 -22 -2 -12 -5z"/>
<path d="M6418 6091 c-72 -55 -113 -102 -153 -176 -31 -58 -29 -106 7 -200 11
-30 18 -64 15 -77 -4 -13 -30 -54 -58 -93 -65 -88 -92 -145 -77 -162 6 -8 34
-13 70 -13 55 0 63 3 92 33 64 69 100 122 132 196 33 75 31 100 -5 67 -10 -9
-23 -16 -29 -16 -15 0 -16 36 -2 45 6 3 10 17 10 31 0 21 -3 23 -19 14 -34
-18 -39 -12 -29 30 6 24 18 42 29 45 20 7 59 -10 59 -25 0 -6 5 -10 10 -10 13
0 13 91 0 126 -9 23 -7 30 15 50 23 21 26 21 34 6 14 -27 34 -178 26 -201 -11
-37 5 -22 25 22 17 39 18 47 4 117 -21 112 -66 240 -84 240 -4 0 -36 -22 -72
-49z"/>
<path d="M5184 6004 c-18 -14 -18 -15 4 -4 12 6 22 13 22 15 0 8 -5 6 -26 -11z"/>
<path d="M5507 5670 c-3 -14 -9 -53 -11 -85 l-5 -60 14 70 c15 68 16 127 2 75z"/>
<path d="M6500 5668 c0 -3 -7 -22 -15 -42 -8 -20 -13 -36 -10 -36 9 0 37 71
31 78 -3 3 -6 3 -6 0z"/>
<path d="M3690 5601 c0 -6 4 -13 10 -16 6 -3 7 1 4 9 -7 18 -14 21 -14 7z"/>
<path d="M4040 5260 c0 -5 5 -10 11 -10 5 0 7 5 4 10 -3 6 -8 10 -11 10 -2 0
-4 -4 -4 -10z"/>
<path d="M4097 5191 c12 -10 20 -21 17 -24 -3 -2 2 -7 11 -10 8 -4 15 -4 15
-2 0 8 -48 55 -56 55 -5 -1 1 -9 13 -19z"/>
<path d="M4190 5191 c0 -6 4 -13 10 -16 5 -3 16 -20 25 -38 27 -56 49 -77 87
-84 41 -6 92 13 119 45 16 19 16 20 -5 30 -31 16 -205 72 -222 72 -8 0 -14 -4
-14 -9z m185 -55 c21 -8 41 -20 44 -27 2 -8 -2 -10 -15 -5 -11 5 -38 15 -61
23 -24 8 -43 17 -43 19 0 8 36 3 75 -10z"/>
<path d="M4343 4793 c9 -2 23 -2 30 0 6 3 -1 5 -18 5 -16 0 -22 -2 -12 -5z"/>
<path d="M4503 4783 c43 -11 7 -21 -112 -31 -131 -11 -158 -18 -198 -55 -22
-20 -31 -47 -15 -47 4 0 50 14 102 31 90 29 104 31 260 32 114 0 193 -5 258
-16 103 -19 168 -22 177 -8 7 13 -2 15 -220 55 -164 30 -306 52 -252 39z"/>
<path d="M4345 4571 c-57 -9 -65 -17 -62 -57 2 -33 4 -35 32 -30 17 2 24 2 18
-1 -20 -8 -15 -21 9 -25 16 -2 25 -12 29 -33 4 -16 7 -22 8 -13 0 9 20 30 44
46 41 28 194 92 218 92 8 0 9 3 4 9 -13 11 -247 20 -300 12z"/>
<path d="M5804 2649 c-71 -44 -163 -106 -204 -137 -90 -67 -202 -164 -196
-170 2 -2 51 28 108 66 57 38 128 82 158 97 30 15 89 52 131 81 42 30 81 54
86 54 5 0 24 12 42 28 23 19 30 32 26 45 -4 9 -11 17 -15 17 -4 0 -65 -36
-136 -81z"/>
<path d="M8020 3587 c-59 -8 -104 -31 -97 -50 7 -22 156 -49 245 -44 46 3 86
7 88 10 7 7 -36 56 -61 70 -30 16 -113 23 -175 14z"/>
<path d="M2208 3493 c-25 -16 -58 -67 -58 -90 0 -11 189 10 262 29 39 9 45 14
36 25 -23 28 -72 45 -142 49 -57 4 -77 1 -98 -13z"/>
<path d="M9220 1900 c-47 -10 -128 -28 -180 -39 -281 -61 -705 -193 -1445
-446 -606 -208 -1476 -537 -1461 -552 2 -2 35 5 73 16 37 11 127 33 198 49
332 76 1075 306 1545 479 255 94 399 146 630 228 113 40 284 104 380 142 96
38 213 82 260 98 47 16 89 32 95 37 12 11 5 10 -95 -12z"/>
<path d="M1521 1895 c6 -5 265 -133 384 -190 50 -23 236 -113 415 -200 492
-238 805 -381 1095 -497 169 -68 426 -160 431 -155 15 14 -1005 535 -1311 669
-152 66 -345 143 -555 219 -149 53 -464 160 -459 154z"/>
</g>
</svg>
